<svg width="87" height="174" viewBox="0 0 87 174" fill="none" xmlns="http://www.w3.org/2000/svg">
<path d="M86.7339 -3.79126e-06C75.3438 -3.29338e-06 64.0653 2.24344 53.5423 6.60222C43.0192 10.961 33.4578 17.3498 25.4038 25.4038C17.3498 33.4578 10.961 43.0192 6.60222 53.5423C2.24343 64.0653 -4.78701e-06 75.3438 -3.79126e-06 86.7339C-2.79551e-06 98.124 2.24344 109.402 6.60222 119.926C10.961 130.449 17.3498 140.01 25.4038 148.064C33.4578 156.118 43.0192 162.507 53.5423 166.866C64.0653 171.224 75.3439 173.468 86.7339 173.468L86.7339 86.7339L86.7339 -3.79126e-06Z" fill="#284B63"/>
</svg>
