<svg width="141" height="28" viewBox="0 0 141 28" fill="none" xmlns="http://www.w3.org/2000/svg">
<path d="M20.9048 16.707C20.6027 16.9998 20.4638 17.4233 20.5327 17.8387L21.5698 23.5787C21.6573 24.0652 21.452 24.5575 21.0448 24.8387C20.6458 25.1303 20.115 25.1653 19.6798 24.932L14.5127 22.237C14.333 22.1413 14.1335 22.09 13.9293 22.0842H13.6132C13.5035 22.1005 13.3962 22.1355 13.2982 22.1892L8.12985 24.897C7.87435 25.0253 7.58501 25.0708 7.30151 25.0253C6.61085 24.8947 6.15001 24.2367 6.26318 23.5425L7.30151 17.8025C7.37035 17.3837 7.23151 16.9578 6.92935 16.6603L2.71651 12.577C2.36418 12.2352 2.24168 11.7218 2.40268 11.2587C2.55901 10.7967 2.95801 10.4595 3.43985 10.3837L9.23818 9.54249C9.67918 9.49699 10.0665 9.22866 10.2648 8.83199L12.8198 3.59366C12.8805 3.47699 12.9587 3.36966 13.0532 3.27866L13.1582 3.19699C13.213 3.13633 13.276 3.08616 13.346 3.04533L13.4732 2.99866L13.6715 2.91699H14.1627C14.6013 2.96249 14.9875 3.22499 15.1893 3.61699L17.7782 8.83199C17.9648 9.21349 18.3277 9.47833 18.7465 9.54249L24.5448 10.3837C25.0348 10.4537 25.4443 10.792 25.6065 11.2587C25.7593 11.7265 25.6275 12.2398 25.2682 12.577L20.9048 16.707Z" fill="#2E4A64"/>
<path d="M48.9048 16.707C48.6027 16.9998 48.4638 17.4233 48.5327 17.8387L49.5698 23.5787C49.6573 24.0652 49.452 24.5575 49.0448 24.8387C48.6458 25.1303 48.115 25.1653 47.6798 24.932L42.5127 22.237C42.333 22.1413 42.1335 22.09 41.9293 22.0842H41.6132C41.5035 22.1005 41.3962 22.1355 41.2982 22.1892L36.1298 24.897C35.8743 25.0253 35.585 25.0708 35.3015 25.0253C34.6108 24.8947 34.15 24.2367 34.2632 23.5425L35.3015 17.8025C35.3703 17.3837 35.2315 16.9578 34.9293 16.6603L30.7165 12.577C30.3642 12.2352 30.2417 11.7218 30.4027 11.2587C30.559 10.7967 30.958 10.4595 31.4398 10.3837L37.2382 9.54249C37.6792 9.49699 38.0665 9.22866 38.2648 8.83199L40.8198 3.59366C40.8805 3.47699 40.9587 3.36966 41.0532 3.27866L41.1582 3.19699C41.213 3.13633 41.276 3.08616 41.346 3.04533L41.4732 2.99866L41.6715 2.91699H42.1627C42.6013 2.96249 42.9875 3.22499 43.1893 3.61699L45.7782 8.83199C45.9648 9.21349 46.3277 9.47833 46.7465 9.54249L52.5448 10.3837C53.0348 10.4537 53.4443 10.792 53.6065 11.2587C53.7593 11.7265 53.6275 12.2398 53.2682 12.577L48.9048 16.707Z" fill="#2E4A64"/>
<path d="M76.9048 16.707C76.6027 16.9998 76.4638 17.4233 76.5327 17.8387L77.5698 23.5787C77.6573 24.0652 77.452 24.5575 77.0448 24.8387C76.6458 25.1303 76.115 25.1653 75.6798 24.932L70.5127 22.237C70.333 22.1413 70.1335 22.09 69.9293 22.0842H69.6132C69.5035 22.1005 69.3962 22.1355 69.2982 22.1892L64.1298 24.897C63.8743 25.0253 63.585 25.0708 63.3015 25.0253C62.6108 24.8947 62.15 24.2367 62.2632 23.5425L63.3015 17.8025C63.3703 17.3837 63.2315 16.9578 62.9293 16.6603L58.7165 12.577C58.3642 12.2352 58.2417 11.7218 58.4027 11.2587C58.559 10.7967 58.958 10.4595 59.4398 10.3837L65.2382 9.54249C65.6792 9.49699 66.0665 9.22866 66.2648 8.83199L68.8198 3.59366C68.8805 3.47699 68.9587 3.36966 69.0532 3.27866L69.1582 3.19699C69.213 3.13633 69.276 3.08616 69.346 3.04533L69.4732 2.99866L69.6715 2.91699H70.1627C70.6013 2.96249 70.9875 3.22499 71.1893 3.61699L73.7782 8.83199C73.9648 9.21349 74.3277 9.47833 74.7465 9.54249L80.5448 10.3837C81.0348 10.4537 81.4443 10.792 81.6065 11.2587C81.7593 11.7265 81.6275 12.2398 81.2682 12.577L76.9048 16.707Z" fill="#2E4A64"/>
<path d="M104.905 16.707C104.603 16.9998 104.464 17.4233 104.533 17.8387L105.57 23.5787C105.657 24.0652 105.452 24.5575 105.045 24.8387C104.646 25.1303 104.115 25.1653 103.68 24.932L98.5127 22.237C98.333 22.1413 98.1335 22.09 97.9293 22.0842H97.6132C97.5035 22.1005 97.3962 22.1355 97.2982 22.1892L92.1298 24.897C91.8743 25.0253 91.585 25.0708 91.3015 25.0253C90.6108 24.8947 90.15 24.2367 90.2632 23.5425L91.3015 17.8025C91.3703 17.3837 91.2315 16.9578 90.9293 16.6603L86.7165 12.577C86.3642 12.2352 86.2417 11.7218 86.4027 11.2587C86.559 10.7967 86.958 10.4595 87.4398 10.3837L93.2382 9.54249C93.6792 9.49699 94.0665 9.22866 94.2648 8.83199L96.8198 3.59366C96.8805 3.47699 96.9587 3.36966 97.0532 3.27866L97.1582 3.19699C97.213 3.13633 97.276 3.08616 97.346 3.04533L97.4732 2.99866L97.6715 2.91699H98.1627C98.6013 2.96249 98.9875 3.22499 99.1893 3.61699L101.778 8.83199C101.965 9.21349 102.328 9.47833 102.747 9.54249L108.545 10.3837C109.035 10.4537 109.444 10.792 109.607 11.2587C109.759 11.7265 109.628 12.2398 109.268 12.577L104.905 16.707Z" fill="#2E4A64" fill-opacity="0.2"/>
<path d="M132.905 16.707C132.603 16.9998 132.464 17.4233 132.533 17.8387L133.57 23.5787C133.657 24.0652 133.452 24.5575 133.045 24.8387C132.646 25.1303 132.115 25.1653 131.68 24.932L126.513 22.237C126.333 22.1413 126.134 22.09 125.929 22.0842H125.613C125.504 22.1005 125.396 22.1355 125.298 22.1892L120.13 24.897C119.874 25.0253 119.585 25.0708 119.302 25.0253C118.611 24.8947 118.15 24.2367 118.263 23.5425L119.302 17.8025C119.37 17.3837 119.232 16.9578 118.929 16.6603L114.717 12.577C114.364 12.2352 114.242 11.7218 114.403 11.2587C114.559 10.7967 114.958 10.4595 115.44 10.3837L121.238 9.54249C121.679 9.49699 122.067 9.22866 122.265 8.83199L124.82 3.59366C124.881 3.47699 124.959 3.36966 125.053 3.27866L125.158 3.19699C125.213 3.13633 125.276 3.08616 125.346 3.04533L125.473 2.99866L125.672 2.91699H126.163C126.601 2.96249 126.988 3.22499 127.189 3.61699L129.778 8.83199C129.965 9.21349 130.328 9.47833 130.747 9.54249L136.545 10.3837C137.035 10.4537 137.444 10.792 137.607 11.2587C137.759 11.7265 137.628 12.2398 137.268 12.577L132.905 16.707Z" fill="#2E4A64" fill-opacity="0.2"/>
</svg>
